<?xml version="1.0" encoding="utf-8"?>
<!-- Generator: Adobe Illustrator 22.0.0, SVG Export Plug-In . SVG Version: 6.00 Build 0)  -->
<svg version="1.1" id="Layer_1" xmlns="http://www.w3.org/2000/svg" xmlns:xlink="http://www.w3.org/1999/xlink" x="0px" y="0px"
	 viewBox="0 0 6493 3577" style="enable-background:new 0 0 6493 3577;" xml:space="preserve">
<style type="text/css">
	.st0{display:none;}
	.st1{fill:#CE1141;}
	.st2{fill:#373A36;}
</style>
<g id="Grid" class="st0">
</g>
<g id="Sub_Grid">
</g>
<g id="filexlsHR">
	<polygon class="st1" points="6067,976 6067,826 6042,826 6042,1001 6067,1001 6217,1001 6217,976 	"/>
	<polygon class="st1" points="6067,801 5642,801 5642,1076 5667,1076 5667,826 6056.6,826 6217,986.4 6217,1526 5667,1526 
		5667,1376 5642,1376 5642,1551 6242,1551 6242,976 	"/>
	<path class="st1" d="M5667.5,1199.7l33.3-63h41.5l-52.8,88.2l55.8,89.6h-43.1l-34.3-64.1l-34.3,64.1H5592l54.1-89.6l-52.7-88.1
		h41.1L5667.5,1199.7z"/>
	<path class="st1" d="M5804.1,1287.1h79.6v27.3h-115.2v-177.7h35.7L5804.1,1287.1L5804.1,1287.1z"/>
	<path class="st1" d="M6003,1268.1c0.2-6.3-2.4-12.4-7.2-16.5c-7.5-5.5-16-9.5-25-11.7c-16.8-4.4-32.6-11.8-46.7-21.8
		c-10.5-8.2-16.5-21-15.9-34.3c-0.2-14.1,6.5-27.5,18-35.7c13.3-9.7,29.4-14.5,45.8-13.8c17.1-0.8,33.9,4.5,47.5,15
		c11.8,9.4,18.4,24,17.5,39.1l-0.3,0.7H6002c0.5-7.7-2.5-15.2-8.1-20.4c-6.4-5.1-14.4-7.7-22.5-7.1c-7.4-0.5-14.6,1.8-20.4,6.3
		c-4.7,4.1-7.4,10-7.2,16.2c-0.1,6,2.9,11.5,7.8,14.8c8.4,5.4,17.5,9.5,27,12.3c16.3,3.9,31.5,11.3,44.7,21.7
		c10.2,8.8,15.8,21.7,15.4,35.2c0.4,14.2-6.2,27.8-17.8,36c-13.9,9.4-30.4,14-47.1,13.2c-17.5,0.5-34.7-4.5-49.2-14.3
		c-13.7-9.6-21.4-25.8-20-42.5l0.3-0.7h34.6c-0.7,8.8,2.7,17.3,9.3,23.2c7.3,5.3,16.2,8,25.1,7.5c7.7,0.5,15.4-1.6,21.8-6
		C6000.5,1280.5,6003.3,1274.4,6003,1268.1z"/>
</g>
<g id="filexls">
	<polygon class="st2" points="5267,976 5267,826 5242,826 5242,1001 5267,1001 5417,1001 5417,976 	"/>
	<polygon class="st2" points="5267,801 4842,801 4842,1076 4867,1076 4867,826 5256.6,826 5417,986.4 5417,1526 4867,1526 
		4867,1376 4842,1376 4842,1551 5442,1551 5442,976 	"/>
	<path class="st2" d="M4867.5,1199.7l33.3-63h41.5l-52.8,88.2l55.8,89.6h-43.1l-34.3-64.1l-34.3,64.1H4792l54.1-89.6l-52.7-88.1
		h41.1L4867.5,1199.7z"/>
	<path class="st2" d="M5004.1,1287.1h79.6v27.3h-115.2v-177.7h35.7L5004.1,1287.1L5004.1,1287.1z"/>
	<path class="st2" d="M5203,1268.1c0.2-6.3-2.4-12.4-7.2-16.5c-7.5-5.5-16-9.5-25-11.7c-16.8-4.4-32.6-11.8-46.7-21.8
		c-10.5-8.2-16.5-21-15.9-34.3c-0.2-14.1,6.5-27.5,18-35.7c13.3-9.7,29.4-14.5,45.8-13.8c17.1-0.8,33.9,4.5,47.5,15
		c11.8,9.4,18.4,24,17.5,39.1l-0.3,0.7H5202c0.5-7.7-2.5-15.2-8.1-20.4c-6.4-5.1-14.4-7.7-22.5-7.1c-7.4-0.5-14.6,1.8-20.4,6.3
		c-4.7,4.1-7.4,10-7.2,16.2c-0.1,6,2.9,11.5,7.8,14.8c8.4,5.4,17.5,9.5,27,12.3c16.3,3.9,31.5,11.3,44.7,21.7
		c10.2,8.8,15.8,21.7,15.4,35.2c0.4,14.2-6.2,27.8-17.8,36c-13.9,9.4-30.4,14-47.1,13.2c-17.5,0.5-34.7-4.5-49.2-14.3
		c-13.7-9.6-21.4-25.8-20-42.5l0.3-0.7h34.6c-0.7,8.8,2.7,17.3,9.3,23.2c7.3,5.3,16.2,8,25.1,7.5c7.7,0.5,15.4-1.6,21.8-6
		C5200.5,1280.5,5203.3,1274.4,5203,1268.1z"/>
</g>
<g id="filedoc_1_">
	<polygon class="st1" points="4467,976 4467,826 4442,826 4442,1001 4467,1001 4617,1001 4617,976 	"/>
	<polygon class="st1" points="4467,801 4042,801 4042,1076 4067,1076 4067,826 4456.6,826 4617,986.4 4617,1526 4067,1526 
		4067,1376 4042,1376 4042,1551 4642,1551 4642,976 	"/>
	<path class="st1" d="M3992,1314.5v-177.7h62c20-0.7,39.4,6.8,53.7,20.8c14.2,14.1,21.8,33.4,21.1,53.4v29.4
		c0.7,20-6.9,39.4-21.1,53.4c-14.4,13.9-33.7,21.4-53.7,20.7H3992z M4027.6,1164.2v122.9h26.3c11,0.4,21.5-4.5,28.3-13.1
		c7.4-9.6,11.3-21.5,10.7-33.6v-29.7c0.5-12.1-3.3-23.9-10.7-33.4c-6.9-8.5-17.4-13.4-28.3-13.1L4027.6,1164.2z"/>
	<path class="st1" d="M4303.2,1241.6c0.7,20.1-6.7,39.6-20.6,54.1c-14.1,14.4-33.6,22.1-53.7,21.3c-20,0.8-39.5-7-53.5-21.4
		c-13.8-14.6-21.2-34-20.5-54.1v-32c-0.6-20,6.7-39.5,20.4-54c13.9-14.4,33.3-22.2,53.3-21.4c20.1-0.8,39.7,7,53.8,21.4
		c13.9,14.5,21.4,34,20.8,54L4303.2,1241.6L4303.2,1241.6z M4267.7,1209.5c0.5-12.2-3.1-24.2-10.4-34c-6.8-8.9-17.5-13.9-28.7-13.4
		c-11-0.5-21.5,4.5-28.1,13.3c-7,9.9-10.5,21.9-10,34.1v32.2c-0.6,12.3,3,24.4,10.1,34.4c6.7,8.8,17.3,13.8,28.3,13.3
		c11.1,0.5,21.8-4.4,28.6-13.3c7.2-10,10.8-22.1,10.3-34.4L4267.7,1209.5z"/>
	<path class="st1" d="M4467.3,1255.6l0.3,0.7c1.2,16.7-5.1,33.1-17.3,44.5c-13.8,11.4-31.4,17.2-49.2,16.1
		c-19.3,0.8-38.1-6.7-51.6-20.6c-13.4-14.4-20.4-33.5-19.7-53.2V1208c-0.8-19.5,6.1-38.6,19.2-53.2c13-13.9,31.3-21.4,50.3-20.7
		c18.3-1.1,36.4,4.6,50.8,15.9c12.5,11.3,19.1,27.8,17.8,44.7l-0.3,0.7h-34.7c0.7-9.3-2.2-18.4-8.2-25.5c-7-6.1-16.2-9.1-25.5-8.3
		c-10-0.4-19.5,4.5-25,12.9c-6.4,9.9-9.5,21.5-9,33.3v35.5c-0.5,11.9,2.8,23.6,9.4,33.4c6,8.5,15.9,13.3,26.3,13
		c8.8,0.7,17.5-2.3,23.9-8.4c5.8-7.2,8.6-16.4,7.9-25.7L4467.3,1255.6z"/>
</g>
<g id="filedoc">
	<polygon class="st2" points="3667,976 3667,826 3642,826 3642,1001 3667,1001 3817,1001 3817,976 	"/>
	<polygon class="st2" points="3667,801 3242,801 3242,1076 3267,1076 3267,826 3656.6,826 3817,986.4 3817,1526 3267,1526 
		3267,1376 3242,1376 3242,1551 3842,1551 3842,976 	"/>
	<path class="st2" d="M3192,1314.5v-177.7h62c20-0.7,39.4,6.8,53.7,20.8c14.2,14.1,21.8,33.4,21.1,53.4v29.4
		c0.7,20-6.9,39.4-21.1,53.4c-14.4,13.9-33.7,21.4-53.7,20.7H3192z M3227.6,1164.2v122.9h26.3c11,0.4,21.5-4.5,28.3-13.1
		c7.4-9.6,11.3-21.5,10.7-33.6v-29.7c0.5-12.1-3.3-23.9-10.7-33.4c-6.9-8.5-17.4-13.4-28.3-13.1L3227.6,1164.2z"/>
	<path class="st2" d="M3503.2,1241.6c0.7,20.1-6.7,39.6-20.6,54.1c-14.1,14.4-33.6,22.1-53.7,21.3c-20.1,0.8-39.5-7-53.5-21.4
		c-13.8-14.6-21.2-34-20.5-54.1v-32c-0.7-20,6.7-39.5,20.4-54c13.9-14.4,33.3-22.2,53.3-21.4c20.1-0.8,39.7,7,53.8,21.4
		c13.9,14.5,21.4,34,20.7,54L3503.2,1241.6L3503.2,1241.6z M3467.7,1209.5c0.5-12.2-3.2-24.2-10.4-34c-6.8-8.9-17.5-13.9-28.7-13.4
		c-11-0.5-21.5,4.5-28.1,13.3c-7,9.9-10.5,21.9-10,34.1v32.2c-0.6,12.3,3,24.4,10.1,34.4c6.7,8.8,17.3,13.8,28.3,13.3
		c11.1,0.5,21.8-4.4,28.6-13.3c7.2-10,10.8-22.1,10.3-34.4L3467.7,1209.5z"/>
	<path class="st2" d="M3667.3,1255.6l0.3,0.7c1.2,16.7-5.1,33.1-17.3,44.5c-13.8,11.4-31.4,17.2-49.2,16.1
		c-19.3,0.8-38.1-6.7-51.6-20.6c-13.4-14.4-20.4-33.5-19.7-53.2V1208c-0.8-19.5,6.1-38.6,19.2-53.2c13-13.9,31.3-21.4,50.3-20.7
		c18.3-1.1,36.4,4.6,50.8,15.9c12.5,11.3,19.1,27.8,17.8,44.7l-0.3,0.7h-34.7c0.7-9.3-2.2-18.4-8.2-25.5c-7-6.1-16.2-9.1-25.5-8.3
		c-10-0.4-19.5,4.5-25,12.9c-6.4,9.9-9.5,21.5-9,33.3v35.5c-0.5,11.9,2.8,23.6,9.4,33.4c6,8.5,15.9,13.3,26.3,13
		c8.8,0.7,17.5-2.3,23.9-8.4c5.8-7.2,8.6-16.4,7.9-25.7L3667.3,1255.6z"/>
</g>
<g id="filepdfHR">
	<polygon class="st1" points="2867,976 2867,826 2842,826 2842,1001 2867,1001 3017,1001 3017,976 	"/>
	<polygon class="st1" points="2867,801 2442,801 2442,1076 2467,1076 2467,826 2856.5,826 3017,986.3 3017,1526 2467,1526 
		2467,1376 2442,1376 2442,1551 3042,1551 3042,976 	"/>
	<path class="st1" d="M2427.7,1250v64.5H2392v-177.8h68c17.5-1,34.7,4.7,48.2,15.8c22.7,21.6,23.6,57.5,2,80.2c-0.6,0.7-1.3,1.4-2,2
		c-13.6,11-30.8,16.5-48.2,15.5L2427.7,1250z M2427.7,1222.5h32.3c8.3,0.5,16.5-2.5,22.5-8.3c5.2-5.6,8-13.1,7.7-20.8
		c0.3-7.8-2.5-15.4-7.7-21.3c-6.1-5.7-14.2-8.5-22.5-7.8h-32.3V1222.5z"/>
	<path class="st1" d="M2552.7,1314.5v-177.8h62c20-0.7,39.4,6.8,53.8,20.8c14.2,14.1,21.7,33.5,21,53.5v28.5
		c0.8,20-6.8,39.4-21,53.5c-14.2,14.2-33.7,22-53.8,21.5H2552.7z M2588.5,1164.5v123h26.2c10.7-0.1,20.7-5,27.3-13.5
		c8-9.7,12.2-22,11.8-34.5v-28.7c0.3-12.2-3.9-24.2-11.8-33.5c-6.7-8.1-16.7-12.8-27.3-12.7L2588.5,1164.5L2588.5,1164.5z"/>
	<path class="st1" d="M2824.3,1239.5h-68v75h-35.7v-177.8h116.2v27.8h-80.5v50h68.3L2824.3,1239.5z"/>
</g>
<g>
	<polygon class="st2" points="2067,976 2067,826 2042,826 2042,1001 2067,1001 2217,1001 2217,976 	"/>
	<polygon class="st2" points="2067,801 1642,801 1642,1076 1667,1076 1667,826 2056.5,826 2217,986.3 2217,1526 1667,1526 
		1667,1376 1642,1376 1642,1551 2242,1551 2242,976 	"/>
	<path class="st2" d="M1627.7,1250v64.5H1592v-177.8h68c17.5-1,34.7,4.7,48.2,15.8c22.7,21.6,23.6,57.5,2,80.2c-0.7,0.7-1.3,1.4-2,2
		c-13.6,11-30.8,16.5-48.2,15.5L1627.7,1250z M1627.7,1222.5h32.3c8.3,0.5,16.5-2.5,22.5-8.3c5.2-5.6,8-13.1,7.7-20.8
		c0.3-7.8-2.5-15.4-7.7-21.3c-6.1-5.7-14.2-8.5-22.5-7.8h-32.3V1222.5z"/>
	<path class="st2" d="M1752.7,1314.5v-177.8h62c20-0.7,39.4,6.8,53.7,20.8c14.2,14.1,21.7,33.5,21,53.5v28.5
		c0.8,20-6.8,39.4-21,53.5c-14.2,14.2-33.7,22-53.7,21.5H1752.7z M1788.5,1164.5v123h26.2c10.7-0.1,20.7-5,27.3-13.5
		c8-9.7,12.2-22,11.8-34.5v-28.7c0.3-12.2-3.9-24.2-11.8-33.5c-6.7-8.1-16.7-12.8-27.3-12.7L1788.5,1164.5L1788.5,1164.5z"/>
	<path class="st2" d="M2024.3,1239.5h-68v75h-35.7v-177.8h116.2v27.8h-80.5v50h68.3L2024.3,1239.5z"/>
</g>
<rect id="accordianminusHR" x="2467" y="2226" class="st1" width="383.5" height="50"/>
<rect id="accordianminus" x="1667" y="2226" class="st2" width="383.5" height="50"/>
<polygon id="accordianplusR" class="st1" points="1192,2226 1017,2226 1017,2051 967,2051 967,2226 792,2226 792,2276 967,2276 
	967,2451 1017,2451 1017,2276 1192,2276 "/>
<polygon id="accordianplus" class="st2" points="392,2226 217,2226 217,2051 167,2051 167,2226 -8,2226 -8,2276 167,2276 167,2451 
	217,2451 217,2276 392,2276 "/>
<g id="arrowexternalHR">
	<polygon class="st1" points="1392.1,2959.3 1367.1,2959.3 1367.1,2759.3 1192.1,2759.3 1192.1,2734.3 1392.1,2734.3 	"/>
	<polygon class="st1" points="1392.1,3334.3 792.1,3334.3 792.1,2734.3 1067.1,2734.3 1067.1,2759.3 817.1,2759.3 817.1,3309.3 
		1367.1,3309.3 1367.1,3084.3 1392.1,3084.3 	"/>
	
		<rect x="921.3" y="2923.6" transform="matrix(0.7071 -0.7071 0.7071 0.7071 -1727.7356 1701.1279)" class="st1" width="536.5" height="25"/>
</g>
<g id="arrowexternal_1_">
	<polygon class="st2" points="592.1,2959.3 567.1,2959.3 567.1,2759.3 392.1,2759.3 392.1,2734.3 592.1,2734.3 	"/>
	<polygon class="st2" points="592.1,3334.3 -7.9,3334.3 -7.9,2734.3 267.1,2734.3 267.1,2759.3 17.1,2759.3 17.1,3309.3 
		567.1,3309.3 567.1,3084.3 592.1,3084.3 	"/>
	
		<rect x="121.3" y="2923.6" transform="matrix(0.7071 -0.7071 0.7071 0.7071 -1962.0511 1135.4491)" class="st2" width="536.5" height="25"/>
</g>
<g id="mobiledownloadHR">
	<polygon class="st1" points="1168,1262.5 1079.5,1351 991,1262.5 1008.7,1245 1079.5,1315.5 1150.3,1245 	"/>
	<rect x="1067" y="1126" class="st1" width="25" height="200"/>
	<path class="st1" d="M1392,1001l-175-175l-10.3,25l160.3,160.3L1392,1001z"/>
	<rect x="917" y="1401" class="st1" width="325" height="25"/>
	<path class="st1" d="M1392,1576H792V826h425v175h175V1576z M817,1551h550v-525h-175V851H817V1551z"/>
</g>
<g id="mobiledownload">
	<polygon class="st2" points="368,1258.2 279.5,1346.7 191,1258.2 208.7,1240.7 279.5,1311.2 350.3,1240.7 	"/>
	<rect x="267" y="1126" class="st2" width="25" height="200"/>
	<path class="st2" d="M592,1001L417,826l-10.3,25L567,1011.3L592,1001z"/>
	<rect x="117" y="1401" class="st2" width="325" height="25"/>
	<path class="st2" d="M592,1576H-8V826h425v175h175V1576z M17,1551h550v-525H392V851H17V1551z"/>
</g>
<g id="l1navsocialHR">
	<polygon class="st1" points="6017,139.5 5954.5,202 5892,139.5 5829.5,202 5767,139.5 5704.5,202 5892,389.5 6079.5,202 	"/>
	<path class="st1" d="M5592,1v475h187.8L5892,581.8L6004.3,476H6192V1H5592z M6167,451h-172.3L5892,547.3L5789.5,451H5617V26h550
		V451z"/>
</g>
<g id="l1navsocial">
	<polygon class="st2" points="5217,139.5 5154.5,202 5092,139.5 5029.5,202 4967,139.5 4904.5,202 5092,389.5 5279.5,202 	"/>
	<path class="st2" d="M4792,1v475h187.8L5092,581.8L5204.3,476H5392V1H4792z M5367,451h-172.3L5092,547.3L4989.5,451H4817V26h550
		V451z"/>
</g>
<g id="l1navglobeHR_1_">
	<rect x="3201.6" y="278" class="st2" width="552.3" height="25"/>
	<rect x="3467" y="14.5" class="st2" width="25" height="552.2"/>
	<g>
		<path class="st2" d="M3506,577l-16.2-20.8c146.3-113.9,173.3-326.1,60.2-473c-17.4-22.6-37.7-42.9-60.2-60.3L3506,2
			c24.3,18.8,46.1,40.7,64.9,65.1C3692.8,225.4,3663.7,454.2,3506,577z"/>
		<path class="st2" d="M3455.5,577c-23.9-18.6-45.4-40.1-64-64c-59.7-76.8-85.9-172.3-73.9-268.8c12.1-96.5,61.1-182.6,137.9-242.3
			l16.2,20.8c-71.2,55.4-116.6,135.2-127.8,224.7c-11.2,89.5,13.1,178.1,68.5,249.3c17.3,22.2,37.2,42.1,59.4,59.4L3455.5,577z"/>
	</g>
	<path class="st2" d="M3480.9,196.6c-0.2,0-0.4,0-0.6,0c-76.9,0-151.6-27.4-210.3-77.2l16.2-19.1c54.2,46,123.1,71.3,194.1,71.3
		c0.2,0,0.4,0,0.6,0c71.1,0,140-25.3,194.1-71.3l16.2,19C3632.5,169.2,3557.9,196.6,3480.9,196.6z"/>
	<path class="st2" d="M3674.8,478.7c-112.6-96.4-276-96.4-388.5,0l-16.2-19c122-104.4,299.1-104.4,421.1,0L3674.8,478.7z"/>
	<path class="st2" d="M3480.5,578c-159.1,0-288.5-129.4-288.5-288.5S3321.4,1,3480.5,1C3639.6,1,3769,130.4,3769,289.5
		S3639.6,578,3480.5,578z M3480.5,26C3335.2,26,3217,144.2,3217,289.5S3335.2,553,3480.5,553c145.3,0,263.5-118.2,263.5-263.5
		S3625.8,26,3480.5,26z"/>
</g>
<g id="l1navglobe_1_">
	<rect x="4001.6" y="278" class="st1" width="552.3" height="25"/>
	<rect x="4267" y="14.5" class="st1" width="25" height="552.2"/>
	<g>
		<path class="st1" d="M4306,577l-16.2-20.8c146.3-113.9,173.3-326.1,60.2-473c-17.5-22.6-37.7-42.9-60.2-60.3L4306,2
			c24.3,18.8,46.1,40.7,64.9,65.1C4492.8,225.4,4463.7,454.2,4306,577z"/>
		<path class="st1" d="M4255.5,577c-23.9-18.6-45.4-40.1-64-64c-59.7-76.8-85.9-172.3-73.9-268.8c12.1-96.5,61.1-182.6,137.9-242.3
			l16.2,20.8c-71.2,55.4-116.6,135.2-127.8,224.7c-11.2,89.5,13.1,178.1,68.5,249.3c17.3,22.2,37.2,42.1,59.4,59.4L4255.5,577z"/>
	</g>
	<path class="st1" d="M4280.9,196.6c-0.2,0-0.4,0-0.6,0c-77,0-151.6-27.4-210.3-77.2l16.2-19.1c54.1,46,123,71.3,194.1,71.3
		c0.2,0,0.4,0,0.6,0c71.1,0,140-25.3,194.1-71.3l16.2,19C4432.5,169.2,4357.9,196.6,4280.9,196.6z"/>
	<path class="st1" d="M4474.8,478.7c-112.6-96.4-276-96.4-388.5,0l-16.2-19c122-104.4,299.1-104.4,421.1,0L4474.8,478.7z"/>
	<path class="st1" d="M4280.5,578c-159.1,0-288.5-129.4-288.5-288.5S4121.4,1,4280.5,1C4439.6,1,4569,130.4,4569,289.5
		S4439.6,578,4280.5,578z M4280.5,26C4135.2,26,4017,144.2,4017,289.5S4135.2,553,4280.5,553c145.3,0,263.5-118.2,263.5-263.5
		S4425.8,26,4280.5,26z"/>
</g>
<rect x="2392" y="1" class="st1" width="50" height="300"/>
<g id="inpagenav">
	<rect x="1592" y="1" class="st1" width="100" height="100"/>
	<rect x="1592" y="151" class="st1" width="100" height="100"/>
	<rect x="1592" y="301" class="st1" width="100" height="100"/>
</g>
<g id="meganavHR">
	<rect x="792" y="1" class="st1" width="600" height="50"/>
	<rect x="792" y="151" class="st1" width="600" height="50"/>
	<rect x="792" y="301" class="st1" width="600" height="50"/>
</g>
<g id="meganav">
	<rect x="-8" y="1" class="st2" width="600" height="50"/>
	<rect x="-8" y="151" class="st2" width="600" height="50"/>
	<rect x="-8" y="301" class="st2" width="600" height="50"/>
</g>
<g id="filexlsHR_1_">
	<polygon class="st1" points="4467,1926 4467,1776 4442,1776 4442,1951 4467,1951 4617,1951 4617,1926 	"/>
	<polygon class="st1" points="4467,1751 4042,1751 4042,2026 4067,2026 4067,1776 4456.6,1776 4617,1936.4 4617,2476 4067,2476 
		4067,2326 4042,2326 4042,2501 4642,2501 4642,1926 	"/>
</g>
<g id="filexls_1_">
	<polygon class="st2" points="3667,1926 3667,1776 3642,1776 3642,1951 3667,1951 3817,1951 3817,1926 	"/>
	<polygon class="st2" points="3667,1751 3242,1751 3242,2026 3267,2026 3267,1776 3656.6,1776 3817,1936.4 3817,2476 3267,2476 
		3267,2326 3242,2326 3242,2501 3842,2501 3842,1926 	"/>
	<g>
		<path d="M3259.7,2193.4h-27.2v74h-33.5v-183.4h66.3c37.1,0,60.5,13.7,60.5,53.6C3325.7,2179.1,3297.4,2193.4,3259.7,2193.4z
			 M3256.6,2110.9h-24.2v55.3h22.8c20.1,0,35.5-4.9,35.5-27.8C3290.8,2115,3276.7,2110.9,3256.6,2110.9z"/>
		<path d="M3411.5,2193.4h-27.2v74h-33.5v-183.4h66.3c37.1,0,60.5,13.7,60.5,53.6C3477.5,2179.1,3449.2,2193.4,3411.5,2193.4z
			 M3408.4,2110.9h-24.2v55.3h22.8c20.1,0,35.5-4.9,35.5-27.8C3442.5,2115,3428.5,2110.9,3408.4,2110.9z"/>
		<path d="M3576.5,2110.9v156.5h-33.6v-156.5h-52v-27h137.5v27H3576.5z"/>
	</g>
</g>
<g>
	<path class="st1" d="M4052.8,2193.4h-27.2v74H3992v-183.4h66.3c37.1,0,60.5,13.7,60.5,53.6
		C4118.8,2179.1,4090.5,2193.4,4052.8,2193.4z M4049.8,2110.9h-24.2v55.3h22.8c20.1,0,35.5-4.9,35.5-27.8
		C4083.9,2115,4069.8,2110.9,4049.8,2110.9z"/>
	<path class="st1" d="M4204.6,2193.4h-27.2v74h-33.5v-183.4h66.3c37.1,0,60.5,13.7,60.5,53.6
		C4270.6,2179.1,4242.3,2193.4,4204.6,2193.4z M4201.5,2110.9h-24.2v55.3h22.8c20.1,0,35.5-4.9,35.5-27.8
		C4235.7,2115,4221.6,2110.9,4201.5,2110.9z"/>
	<path class="st1" d="M4369.6,2110.9v156.5H4336v-156.5h-52v-27h137.5v27H4369.6z"/>
</g>
</svg>
